<svg width="44" height="44" viewBox="0 0 44 44" fill="none" xmlns="http://www.w3.org/2000/svg">
<path d="M43.8767 12.9287C43.7711 10.5861 43.3926 8.98319 42.8557 7.58287C42.2924 6.13851 41.5443 4.90552 40.3208 3.69015C39.0974 2.47478 37.8739 1.70857 36.4304 1.15372C35.031 0.607686 33.4291 0.23779 31.0878 0.132106C28.7377 0.0264211 27.9896 0 22.022 0C16.0456 0 15.2974 0.0264211 12.9562 0.132106C10.6149 0.23779 9.01296 0.616493 7.61348 1.15372C6.16119 1.71737 4.92895 2.46597 3.7143 3.69015C2.49966 4.91433 1.73391 6.13851 1.1794 7.58287C0.64249 8.98319 0.264015 10.5861 0.158394 12.9287C0.0527725 15.2802 0.0263672 16.0288 0.0263672 22C0.0263672 27.98 0.0527725 28.7286 0.158394 31.0713C0.264015 33.4139 0.64249 35.0168 1.1794 36.4171C1.74271 37.8615 2.49086 39.0945 3.7143 40.3098C4.92895 41.534 6.16119 42.2914 7.60468 42.8463C9.00416 43.3923 10.6061 43.7622 12.9474 43.8679C15.2974 43.9736 16.0456 44 22.0132 44C27.9896 44 28.7377 43.9736 31.079 43.8679C33.4202 43.7622 35.0222 43.3835 36.4216 42.8463C37.8651 42.2826 39.0974 41.534 40.312 40.3098C41.5267 39.0857 42.2924 37.8615 42.8469 36.4171C43.3926 35.0168 43.7623 33.4139 43.8679 31.0713C43.9736 28.7198 44 27.9712 44 22C44 16.0288 43.9824 15.2714 43.8767 12.9287ZM39.9247 30.8951C39.8279 33.044 39.4671 34.2154 39.1678 34.9816C38.7717 36.0032 38.2876 36.743 37.5131 37.518C36.7385 38.293 36.008 38.7598 34.9782 39.1737C34.2036 39.4732 33.033 39.8343 30.8941 39.9311C28.5793 40.0368 27.8839 40.0633 22.0044 40.0633C16.1248 40.0633 15.4294 40.0368 13.1146 39.9311C10.967 39.8343 9.79632 39.4732 9.03057 39.1737C8.00956 38.7774 7.27022 38.293 6.49566 37.518C5.72111 36.743 5.25461 36.012 4.84093 34.9816C4.54167 34.2066 4.1808 33.0352 4.08398 30.8951C3.97836 28.5789 3.95195 27.8831 3.95195 22C3.95195 16.1169 3.97836 15.4211 4.08398 13.1049C4.1808 10.956 4.54167 9.78463 4.84093 9.01842C5.23701 7.9968 5.72111 7.25701 6.49566 6.48199C7.27022 5.70697 8.00076 5.24019 9.03057 4.82626C9.80512 4.52682 10.9758 4.16573 13.1146 4.06886C15.4294 3.96317 16.1248 3.93675 22.0044 3.93675C27.8839 3.93675 28.5793 3.96317 30.8941 4.06886C33.0418 4.16573 34.2124 4.52682 34.9782 4.82626C35.9992 5.22258 36.7385 5.70697 37.5131 6.48199C38.2876 7.25701 38.7541 7.98799 39.1678 9.01842C39.4671 9.79344 39.8279 10.9648 39.9247 13.1049C40.0304 15.4211 40.0568 16.1169 40.0568 22C40.0568 27.8831 40.0216 28.5789 39.9247 30.8951Z" fill="#0575E7"/>
<path d="M22.0046 10.6918C15.7553 10.6918 10.7031 15.7558 10.7031 22C10.7031 28.253 15.7641 33.3083 22.0046 33.3083C28.245 33.3083 33.306 28.2354 33.306 22C33.306 15.747 28.2538 10.6918 22.0046 10.6918ZM22.0046 29.3363C17.9558 29.3363 14.6727 26.0513 14.6727 22C14.6727 17.9488 17.9558 14.6638 22.0046 14.6638C26.0534 14.6638 29.3364 17.9488 29.3364 22C29.3364 26.0513 26.0534 29.3363 22.0046 29.3363Z" fill="#0575E7"/>
<path d="M33.746 12.8935C35.2043 12.8935 36.3865 11.7106 36.3865 10.2514C36.3865 8.79217 35.2043 7.60925 33.746 7.60925C32.2877 7.60925 31.1055 8.79217 31.1055 10.2514C31.1055 11.7106 32.2877 12.8935 33.746 12.8935Z" fill="#0575E7"/>
<path d="M0 22C0 27.98 0.0264053 28.7286 0.132026 31.0713C0.237648 33.4139 0.616123 35.0168 1.15303 36.4171C1.71634 37.8615 2.46449 39.0945 3.68794 40.3098C4.90258 41.5252 6.13483 42.2914 7.57832 42.8463C8.9778 43.3923 10.5797 43.7622 12.921 43.8679C15.2711 43.9736 16.0192 44 21.9868 44C27.9632 44 28.7113 43.9736 31.0526 43.8679C33.3939 43.7622 34.9958 43.3835 36.3953 42.8463C37.8388 42.2826 39.071 41.534 40.2857 40.3098C41.5003 39.0945 42.2661 37.8615 42.8206 36.4171C43.3663 35.0168 43.7359 33.4139 43.8416 31.0713C43.9472 28.7198 43.9736 27.9712 43.9736 22C43.9736 16.02 43.9472 15.2714 43.8416 12.9287C43.7359 10.5861 43.3575 8.98319 42.8206 7.58287C42.2573 6.13851 41.5091 4.90552 40.2857 3.69015C39.0798 2.46597 37.8476 1.70857 36.4041 1.15372C35.0046 0.607686 33.4027 0.23779 31.0614 0.132106C28.7113 0.0264211 27.9632 0 21.9956 0C16.0192 0 15.2711 0.0264211 12.9298 0.132106C10.5885 0.23779 8.9866 0.616493 7.58712 1.15372C6.14363 1.71737 4.91138 2.46597 3.69674 3.69015C2.4821 4.91433 1.71634 6.13851 1.16183 7.58287C0.616123 8.98319 0.237648 10.5861 0.132026 12.9287C0.0264053 15.2714 0 16.02 0 22ZM3.96959 22C3.96959 16.1257 3.996 15.4211 4.10162 13.1049C4.19844 10.956 4.55931 9.78463 4.85857 9.01842C5.25465 7.9968 5.73875 7.25701 6.5133 6.48199C7.28786 5.70697 8.0184 5.24019 9.04821 4.82626C9.82277 4.52682 10.9934 4.16573 13.1322 4.06886C15.4471 3.96317 16.1424 3.93675 22.022 3.93675C27.9016 3.93675 28.5969 3.96317 30.9118 4.06886C33.0594 4.16573 34.23 4.52682 34.9958 4.82626C36.0168 5.22258 36.7562 5.70697 37.5307 6.48199C38.3053 7.25701 38.7718 7.98799 39.1854 9.01842C39.4847 9.79344 39.8456 10.9648 39.9424 13.1049C40.048 15.4211 40.0744 16.1169 40.0744 22C40.0744 27.8831 40.048 28.5789 39.9424 30.8951C39.8456 33.044 39.4847 34.2154 39.1854 34.9816C38.7894 36.0032 38.3053 36.743 37.5307 37.518C36.7562 38.293 36.0256 38.7598 34.9958 39.1737C34.2212 39.4732 33.0506 39.8343 30.9118 39.9311C28.5969 40.0368 27.9016 40.0633 22.022 40.0633C16.1424 40.0633 15.4471 40.0368 13.1322 39.9311C10.9846 39.8343 9.81396 39.4732 9.04821 39.1737C8.02721 38.7774 7.28786 38.293 6.5133 37.518C5.73875 36.743 5.27225 36.012 4.85857 34.9816C4.55931 34.2066 4.19844 33.0352 4.10162 30.8951C3.9872 28.5789 3.96959 27.8743 3.96959 22Z" fill="#0575E7"/>
</svg>
