<svg width="44" height="44" viewBox="0 0 44 44" fill="none" xmlns="http://www.w3.org/2000/svg">
<g clip-path="url(#clip0_727_2665)">
<path d="M0 5.86977C0 4.45404 0.49551 3.28608 1.48649 2.3659C2.47746 1.44568 3.76578 0.985596 5.35135 0.985596C6.90864 0.985596 8.16858 1.43859 9.13127 2.34467C10.1223 3.27903 10.6178 4.49651 10.6178 5.99718C10.6178 7.35625 10.1364 8.48878 9.17375 9.39486C8.18277 10.3292 6.88031 10.7964 5.26641 10.7964H5.22394C3.66665 10.7964 2.40671 10.3292 1.44402 9.39486C0.481324 8.4605 0 7.28545 0 5.86977ZM0.552124 43.0319V14.6613H9.9807V43.0319H0.552124ZM15.2046 43.0319H24.6332V27.1902C24.6332 26.1992 24.7465 25.4347 24.973 24.8968C25.3694 23.9341 25.971 23.1201 26.778 22.4547C27.5849 21.7893 28.5972 21.4566 29.8147 21.4566C32.9859 21.4566 34.5714 23.5943 34.5714 27.8698V43.0319H44V26.7655C44 22.575 43.009 19.3968 41.027 17.2308C39.045 15.0647 36.426 13.9817 33.1699 13.9817C29.5174 13.9817 26.6718 15.5532 24.6332 18.696V18.781H24.5907L24.6332 18.696V14.6613H15.2046C15.2612 15.5673 15.2896 18.3845 15.2896 23.113C15.2896 27.8414 15.2612 34.4811 15.2046 43.0319Z" fill="#0575E7"/>
</g>
<defs>
<clipPath id="clip0_727_2665">
<rect width="44" height="44" fill="white"/>
</clipPath>
</defs>
</svg>
