<svg width="580" height="396" viewBox="0 0 580 396" fill="none" xmlns="http://www.w3.org/2000/svg">
<path opacity="0.54" d="M412.228 307.88C418.385 304.116 424.51 300.213 430.433 296.278M533.096 204.463C572.365 154.436 585.237 106.089 569.343 68.3299C552.82 29.0732 507.732 6.41176 442.389 4.5205C379.061 2.68792 303.579 20.5073 229.847 54.6983C219.083 59.6901 208.369 65.0326 198.004 70.5766C196.222 71.5299 194.617 72.5199 191.209 74.4674M167.967 87.7657C161.81 91.5296 155.686 95.433 149.765 99.3671C148.299 100.341 145.93 102.219 143.983 103.68M382.172 325.079C371.808 330.622 361.098 335.964 350.34 340.952C276.609 375.143 201.127 392.962 137.799 391.129C72.4545 389.238 27.3683 366.576 10.8443 327.32C1.31921 304.693 2.12512 278.262 12.7498 249.95C19.8638 230.99 31.3794 211.19 47.1469 191.114M434.253 250.357C407.011 273.798 373.712 294.952 337.957 311.533C282.134 337.42 224.767 350.475 176.428 348.294C126.169 346.025 91.2225 327.513 78.0279 296.165C70.1456 277.438 70.8475 255.567 79.5367 232.415C86.8374 212.961 99.7755 192.601 117.996 172.432M462.191 223.219C502.098 179.046 516.665 133.948 502.159 99.4854C488.964 68.1382 454.019 49.6256 403.759 47.358C355.42 45.1764 298.053 58.2314 242.23 84.1186C206.475 100.699 173.176 121.854 145.934 145.295M302.635 227.618C332.997 213.538 350.502 190.112 343.353 173.126C336.203 156.14 307.914 153.95 277.552 168.03C256.824 177.642 242.091 191.607 237.1 204.907C234.78 211.089 234.566 217.131 236.834 222.521C243.984 239.508 272.273 241.699 302.635 227.618ZM237.93 272.446C260.954 273.77 288.114 267.783 314.409 255.589C371.274 229.218 405.139 183.189 391.505 150.797C384.616 134.431 367.126 124.631 342.259 123.202C319.235 121.878 292.075 127.865 265.779 140.059C227.031 158.028 198.966 185.121 189.325 210.81C184.818 222.822 184.339 234.531 188.684 244.851C195.572 261.217 213.062 271.018 237.93 272.446ZM205.485 311.19C241.615 312.713 284.48 302.9 326.182 283.561C367.886 264.222 403.661 237.568 426.916 208.507C451.419 177.889 459.376 147.872 449.322 123.987C439.268 100.1 412.768 86.0637 374.701 84.4598C338.572 82.9369 295.707 92.7494 254.005 112.089C212.301 131.428 176.526 158.082 153.27 187.143C143.427 199.443 136.256 211.642 131.847 223.391C125.282 240.886 124.849 257.373 130.865 271.663C140.919 295.549 167.42 309.587 205.485 311.19Z" stroke="#DFDFDF" stroke-width="8" stroke-linecap="round"/>
</svg>
