<svg width="44" height="44" viewBox="0 0 44 44" fill="none" xmlns="http://www.w3.org/2000/svg">
<path d="M37.1095 9.50706C34.3306 8.23195 31.3505 7.29251 28.2348 6.75445C28.178 6.74407 28.1213 6.77002 28.0921 6.82192C27.7088 7.50358 27.2843 8.39284 26.987 9.09181C23.6358 8.59009 20.3018 8.59009 17.0192 9.09181C16.7219 8.37731 16.282 7.50358 15.897 6.82192C15.8678 6.77175 15.8111 6.7458 15.7543 6.75445C12.6403 7.29079 9.66025 8.23023 6.87958 9.50706C6.8555 9.51743 6.83487 9.53475 6.82118 9.55723C1.16872 18.0019 -0.379728 26.239 0.379887 34.3739C0.383324 34.4137 0.405665 34.4518 0.4366 34.476C4.16593 37.2147 7.77843 38.8774 11.3238 39.9794C11.3806 39.9968 11.4407 39.976 11.4768 39.9293C12.3155 38.784 13.0631 37.5764 13.7041 36.3064C13.7419 36.2321 13.7058 36.1438 13.6285 36.1144C12.4427 35.6646 11.3135 35.1161 10.2274 34.4933C10.1415 34.4431 10.1346 34.3203 10.2136 34.2614C10.4422 34.0902 10.6708 33.9119 10.8891 33.732C10.9285 33.6992 10.9836 33.6922 11.03 33.713C18.1655 36.9708 25.8906 36.9708 32.9419 33.713C32.9883 33.6905 33.0434 33.6974 33.0846 33.7303C33.3029 33.9102 33.5314 34.0902 33.7617 34.2614C33.8408 34.3203 33.8356 34.4431 33.7497 34.4933C32.6635 35.1282 31.5344 35.6646 30.3469 36.1127C30.2696 36.1421 30.2352 36.2321 30.273 36.3064C30.9277 37.5746 31.6753 38.7822 32.4985 39.9275C32.5329 39.976 32.5948 39.9968 32.6515 39.9794C36.2141 38.8774 39.8266 37.2147 43.5559 34.476C43.5886 34.4518 43.6092 34.4154 43.6126 34.3756C44.5218 24.9707 42.0899 16.8012 37.1662 9.55895C37.1542 9.53475 37.1336 9.51743 37.1095 9.50706ZM14.7696 29.4206C12.6214 29.4206 10.8512 27.4483 10.8512 25.0261C10.8512 22.604 12.587 20.6317 14.7696 20.6317C16.9694 20.6317 18.7224 22.6213 18.688 25.0261C18.688 27.4483 16.9522 29.4206 14.7696 29.4206ZM29.2573 29.4206C27.1091 29.4206 25.3389 27.4483 25.3389 25.0261C25.3389 22.604 27.0747 20.6317 29.2573 20.6317C31.4571 20.6317 33.21 22.6213 33.1757 25.0261C33.1757 27.4483 31.4571 29.4206 29.2573 29.4206Z" fill="#0575E7"/>
</svg>
