<svg width="44" height="44" viewBox="0 0 44 44" fill="none" xmlns="http://www.w3.org/2000/svg">
<path fill-rule="evenodd" clip-rule="evenodd" d="M5 0C2.23858 0 0 2.23858 0 5V39C0 41.7614 2.23858 44 5 44H18.5625V28.3594H12.9766V22H18.5625V17.1531C18.5625 11.6402 21.8453 8.59375 26.8727 8.59375C29.2789 8.59375 31.7969 9.02344 31.7969 9.02344V14.4375H29.0211C26.2883 14.4375 25.4375 16.1348 25.4375 17.875V22H31.5391L30.5637 28.3594H25.4375V44H39C41.7614 44 44 41.7614 44 39V5C44 2.23858 41.7614 0 39 0H5Z" fill="#0575E7"/>
</svg>
