<svg width="44" height="44" viewBox="0 0 44 44" fill="none" xmlns="http://www.w3.org/2000/svg">
<path d="M33.4723 10.1028C33.5976 9.70914 33.5972 9.70901 33.5968 9.70888L33.596 9.70861L33.5941 9.70804L33.5899 9.70676L33.5795 9.70372C33.5761 9.70276 33.5724 9.70173 33.5683 9.70064C33.5629 9.69919 33.5569 9.69763 33.5503 9.69599C33.5271 9.69023 33.4965 9.68344 33.4584 9.67661C33.3822 9.66292 33.2762 9.6491 33.1396 9.64291C32.866 9.63051 32.4718 9.64876 31.9497 9.75833C30.9322 9.97189 29.4325 10.5316 27.3922 11.8836C23.8529 10.9549 20.1318 10.9549 16.5924 11.8837C14.5503 10.5315 13.0488 9.97185 12.0299 9.7583C11.5072 9.64875 11.1125 9.63051 10.8386 9.64291C10.7018 9.6491 10.5957 9.66291 10.5194 9.67658C10.4812 9.68341 10.4506 9.6902 10.4274 9.69594C10.4158 9.69882 10.4061 9.70143 10.3982 9.70366L10.3878 9.7067L10.3836 9.70797L10.3818 9.70854L10.3809 9.70881C10.3805 9.70894 10.3801 9.70907 10.5052 10.1028L10.3801 9.70907L10.1932 9.76846L10.121 9.95086C9.01175 12.7553 9.51848 14.9131 9.81635 15.7721C8.37898 17.4097 7.59697 19.5202 7.62664 21.7003C7.62722 25.9548 8.93599 28.6317 10.9343 30.3035C12.7008 31.7815 14.9557 32.4297 17.1648 32.7482C16.7431 33.3243 16.4054 34.0944 16.2395 35.0583C15.6303 35.3078 14.706 35.5783 13.7318 35.4925C12.6708 35.3991 11.514 34.8819 10.6101 33.3418C10.6094 33.3408 10.6088 33.3398 10.6082 33.3387L10.6074 33.3372L10.5946 33.3151C10.5838 33.2966 10.5683 33.2708 10.5482 33.2387C10.5081 33.1745 10.4494 33.0848 10.3723 32.9777C10.2186 32.764 9.98946 32.4781 9.6859 32.1865C9.08149 31.6058 8.15706 30.9794 6.92843 30.8929L6.91637 30.8921L6.90429 30.8919L6.8994 31.305C6.90429 30.8919 6.90415 30.8919 6.90401 30.8919L6.90369 30.8919L6.90289 30.8919L6.9007 30.8919L6.89403 30.8918L6.87201 30.8919C6.85367 30.8921 6.82811 30.8926 6.79694 30.8937C6.73495 30.8959 6.64884 30.9008 6.55182 30.9115C6.3742 30.9311 6.09751 30.9763 5.87712 31.1015C5.76262 31.1666 5.62439 31.2751 5.54749 31.4511C5.46484 31.6403 5.48278 31.838 5.55668 32.0127C5.68694 32.3206 6.01972 32.6292 6.51897 32.968L6.54697 32.987L6.57483 32.9998L6.57524 33L6.57528 33.0001L6.57993 33.0024C6.58591 33.0054 6.59697 33.0112 6.61267 33.02C6.64406 33.0376 6.69397 33.0672 6.75888 33.1111C6.88863 33.1989 7.07851 33.3441 7.3002 33.565C7.74156 34.0046 8.31476 34.7499 8.78917 35.9521L8.79151 35.9587C8.79529 35.9693 8.80051 35.9834 8.80728 36.0009C8.82082 36.0358 8.84058 36.084 8.86749 36.1433C8.92125 36.2616 9.0038 36.4247 9.1225 36.6137C9.35983 36.9917 9.74348 37.4766 10.3326 37.9155C11.4606 38.756 13.283 39.3854 16.1331 38.877C16.1377 39.7299 16.1448 40.5232 16.1505 41.1592C16.1557 41.7301 16.1597 42.1742 16.1597 42.4209C16.1597 42.6174 16.0886 42.8066 15.9558 42.9262C15.8375 43.033 15.6109 43.1375 15.1798 43.0634C10.3616 41.4562 6.2738 38.2006 3.64458 33.8768C1.01032 29.5446 0.0118583 24.4223 0.827403 19.4257C1.64295 14.4291 4.21946 9.88327 8.09687 6.60143C11.9743 3.3196 16.8997 1.51581 21.9924 1.51312C21.9925 1.51312 21.9925 1.51312 21.9926 1.51312L21.9995 1.51312L33.4723 10.1028ZM33.4723 10.1028L33.5976 9.70914L33.7839 9.76845L33.8562 9.95014C34.9702 12.7513 34.4615 14.91 34.1644 15.7711C35.6067 17.4094 36.3905 19.5238 36.3581 21.7076C36.3575 25.971 35.046 28.6466 33.0433 30.3132C31.274 31.7856 29.0162 32.4259 26.8052 32.739M33.4723 10.1028L26.8052 32.739M26.8052 32.739C27.4178 33.572 27.8577 34.8105 27.8577 36.4562C27.8577 37.9116 27.8513 39.2246 27.845 40.2631C27.8429 40.6141 27.8407 40.9333 27.8388 41.216C27.8351 41.7709 27.8323 42.1847 27.8323 42.4209C27.8323 42.6265 27.9032 42.8164 28.0325 42.9338C28.1472 43.0378 28.3731 43.1436 28.8182 43.0638C33.6375 41.4566 37.7262 38.2002 40.3556 33.8753C42.9898 29.5424 43.9877 24.4193 43.1713 19.4222C42.3548 14.4251 39.777 9.87928 35.8983 6.59801C32.0196 3.31671 27.093 1.51411 21.9996 1.51312L26.8052 32.739Z" fill="#0575E7" stroke="#0575E7" stroke-width="0.82629"/>
<path d="M8.4086 32.313C8.36153 32.4209 8.18776 32.4533 8.04657 32.3778C7.90538 32.3022 7.8004 32.1618 7.85108 32.0502C7.90177 31.9386 8.07192 31.9098 8.21311 31.9854C8.3543 32.061 8.4629 32.205 8.4086 32.313Z" fill="#0575E7"/>
<path d="M9.29566 33.2956C9.22069 33.3332 9.13491 33.3437 9.05302 33.3253C8.97113 33.3069 8.89822 33.2608 8.84675 33.1948C8.70556 33.0436 8.67658 32.8349 8.78519 32.7413C8.8938 32.6477 9.08931 32.6909 9.2305 32.8421C9.37169 32.9932 9.40427 33.202 9.29566 33.2956Z" fill="#0575E7"/>
<path d="M10.1572 34.5447C10.0232 34.6383 9.79512 34.5447 9.66841 34.3575C9.63337 34.324 9.60551 34.2837 9.58648 34.2392C9.56744 34.1946 9.55762 34.1468 9.55762 34.0984C9.55762 34.05 9.56744 34.0021 9.58648 33.9576C9.60551 33.913 9.63337 33.8728 9.66841 33.8392C9.80236 33.7492 10.0305 33.8392 10.1572 34.0228C10.2839 34.2064 10.2875 34.4511 10.1572 34.5447V34.5447Z" fill="#0575E7"/>
<path d="M11.3266 35.7543C11.2071 35.8875 10.9645 35.8515 10.7654 35.6715C10.5663 35.4916 10.5192 35.2468 10.6387 35.1172C10.7582 34.9876 11.0007 35.0236 11.2071 35.2C11.4134 35.3764 11.4533 35.6247 11.3266 35.7543V35.7543Z" fill="#0575E7"/>
<path d="M12.9664 36.4597C12.9121 36.6289 12.6659 36.7045 12.4197 36.6325C12.1735 36.5605 12.0106 36.3589 12.0577 36.1861C12.1047 36.0133 12.3545 35.9341 12.6043 36.0133C12.8541 36.0925 13.0134 36.2833 12.9664 36.4597Z" fill="#0575E7"/>
<path d="M14.755 36.5821C14.755 36.7585 14.5523 36.9097 14.2916 36.9133C14.031 36.9169 13.8174 36.7729 13.8174 36.5965C13.8174 36.4201 14.0201 36.2689 14.2808 36.2653C14.5414 36.2617 14.755 36.4021 14.755 36.5821Z" fill="#0575E7"/>
<path d="M16.4202 36.305C16.4528 36.4814 16.2717 36.665 16.0111 36.7082C15.7504 36.7514 15.5223 36.647 15.4898 36.4742C15.4572 36.3014 15.6454 36.1142 15.8988 36.0674C16.1523 36.0207 16.3876 36.1286 16.4202 36.305Z" fill="#0575E7"/>
</svg>
