<svg width="44" height="44" viewBox="0 0 44 44" fill="none" xmlns="http://www.w3.org/2000/svg">
<path d="M38.6046 13.1646C38.6216 13.5518 38.6216 13.9214 38.6216 14.3086C38.6386 26.0479 30.0137 39.5999 14.2411 39.5999C9.58913 39.5999 5.02203 38.2095 1.1001 35.6047C1.77922 35.6927 2.45834 35.7279 3.13747 35.7279C6.99149 35.7279 10.7436 34.3903 13.7827 31.9087C10.1155 31.8383 6.88962 29.3567 5.76907 25.7311C7.0594 25.9951 8.38369 25.9423 9.64007 25.5727C5.65022 24.7631 2.78093 21.1198 2.76395 16.8782C2.76395 16.843 2.76395 16.8078 2.76395 16.7726C3.95241 17.459 5.29368 17.8462 6.65193 17.8814C2.89977 15.2766 1.72829 10.0846 4.00335 6.01899C8.36671 11.5806 14.7844 14.9422 21.6775 15.3118C20.9814 12.2318 21.9322 8.9934 24.1563 6.811C27.6029 3.44939 33.0358 3.62539 36.2956 7.1982C38.2142 6.811 40.0648 6.07179 41.7456 5.03339C41.1004 7.0926 39.7592 8.835 37.9765 9.94381C39.6743 9.73261 41.3381 9.25741 42.9001 8.5534C41.7456 10.3486 40.2855 11.8974 38.6046 13.1646Z" fill="#0575E7"/>
</svg>
