<svg width="44" height="44" viewBox="0 0 44 44" fill="none" xmlns="http://www.w3.org/2000/svg">
<path fill-rule="evenodd" clip-rule="evenodd" d="M39.2156 7.54231C41.1003 8.04972 42.5863 9.53571 43.0937 11.4204C44.0361 14.8635 43.9998 22.0398 43.9998 22.0398C43.9998 22.0398 43.9998 29.1798 43.0937 32.6229C42.5863 34.5076 41.1003 35.9936 39.2156 36.501C35.7725 37.4071 21.9999 37.4071 21.9999 37.4071C21.9999 37.4071 8.26356 37.4071 4.78416 36.4648C2.89949 35.9573 1.4135 34.4714 0.906092 32.5867C0 29.1798 0 22.0035 0 22.0035C0 22.0035 0 14.8635 0.906092 11.4204C1.4135 9.53571 2.93574 8.01348 4.78416 7.50607C8.22731 6.59998 21.9999 6.59998 21.9999 6.59998C21.9999 6.59998 35.7725 6.59998 39.2156 7.54231ZM29.0675 22.0036L17.6145 28.5999V15.4072L29.0675 22.0036Z" fill="#0575E7"/>
</svg>
