<svg width="451" height="70" viewBox="0 0 451 70" fill="none" xmlns="http://www.w3.org/2000/svg">
<path d="M90.8605 53.5627L95.0139 48.448C99.4566 52.6503 105.365 54.945 111.474 54.8414C113.459 54.8988 115.436 54.5718 117.296 53.8782C118.68 53.3615 119.898 52.4775 120.82 51.3208C121.577 50.3444 121.995 49.1472 122.011 47.9109C122.022 46.6034 121.646 45.3221 120.93 44.2283C119.938 42.8727 118.644 41.7667 117.151 40.9974C114.726 39.6919 112.181 38.6242 109.551 37.8092C106.092 36.6865 102.769 35.1797 99.644 33.3167C97.5516 32.1277 95.7946 30.4266 94.5373 28.3725C93.5524 26.5709 93.051 24.5442 93.0819 22.4905C93.0634 19.9781 93.828 17.5225 95.2692 15.4662C96.8471 13.2772 98.9723 11.5426 101.431 10.4366C104.265 9.12889 107.359 8.48185 110.479 8.54415C113.549 8.57011 116.591 9.14756 119.458 10.2491C122.435 11.339 125.196 12.9496 127.612 15.0058L123.535 20.3508C121.742 18.5949 119.641 17.1848 117.339 16.1907C115.001 15.1927 112.483 14.6877 109.942 14.7075C106.629 14.7075 104.144 15.4122 102.487 16.8216C101.727 17.4048 101.109 18.1525 100.679 19.0087C100.248 19.8649 100.017 20.8074 100.001 21.7659C100.013 22.8838 100.363 23.9719 101.006 24.8859C101.944 26.098 103.15 27.0755 104.529 27.7416C106.81 28.9083 109.192 29.8669 111.645 30.6059C115.32 31.6768 118.831 33.2486 122.079 35.2774C124.329 36.6606 126.233 38.5415 127.646 40.7758C128.761 42.6499 129.349 44.7914 129.348 46.9732C129.37 49.5353 128.622 52.0449 127.203 54.1765C125.641 56.4672 123.467 58.2721 120.93 59.3851C117.764 60.7557 114.335 61.4134 110.887 61.3116C108.368 61.3074 105.861 60.9692 103.431 60.3057C100.995 59.667 98.6414 58.7458 96.4182 57.5608C94.3874 56.4962 92.5164 55.1503 90.8605 53.5627Z" fill="white"/>
<path d="M137.51 41.4495C137.387 37.6992 138.148 33.9726 139.731 30.5721C141.063 27.7871 143.174 25.4502 145.808 23.8461C148.506 22.3365 151.544 21.5439 154.634 21.5439C157.724 21.5439 160.763 22.3365 163.46 23.8461C166.088 25.4535 168.193 27.79 169.52 30.5721C171.099 33.9742 171.86 37.6996 171.742 41.4495C171.856 45.199 171.095 48.9235 169.52 52.3269C168.198 55.118 166.08 57.4551 163.435 59.0443C160.73 60.5322 157.695 61.3123 154.609 61.3123C151.523 61.3123 148.487 60.5322 145.783 59.0443C143.149 57.4507 141.044 55.1139 139.731 52.3269C138.152 48.9248 137.392 45.1994 137.51 41.4495ZM144.481 41.4495C144.407 44.018 144.817 46.5774 145.689 48.9938C146.365 50.8649 147.579 52.4935 149.179 53.6738C150.807 54.7152 152.698 55.2686 154.63 55.2686C156.562 55.2686 158.453 54.7152 160.082 53.6738C161.676 52.4905 162.887 50.8626 163.563 48.9938C164.441 46.5785 164.856 44.0191 164.788 41.4495C164.855 38.8828 164.44 36.3264 163.563 33.9137C162.88 32.0367 161.672 30.3968 160.082 29.1911C158.461 28.1283 156.567 27.5622 154.63 27.5622C152.693 27.5622 150.799 28.1283 149.179 29.1911C147.584 30.3939 146.372 32.0344 145.689 33.9137C144.818 36.3275 144.408 38.8839 144.481 41.4495Z" fill="white"/>
<path d="M182.159 45.7625V22.2856H188.968V44.8674C188.968 48.3398 189.723 50.8659 191.232 52.4458C191.979 53.2322 192.885 53.8508 193.888 54.2608C194.892 54.6708 195.971 54.8628 197.054 54.8242C199.066 54.8158 201.039 54.2652 202.765 53.2301C204.714 52.0644 206.466 50.597 207.957 48.8825V54.2275C206.382 56.2683 204.446 58.0021 202.246 59.3422C200.182 60.5846 197.829 61.2629 195.421 61.3092C193.013 61.3556 190.636 60.7685 188.526 59.6065C186.482 58.3981 184.853 56.5967 183.853 54.4406C182.63 51.7169 182.05 48.7472 182.159 45.7625ZM208.416 60.5442L206.859 53.1107V22.2856H213.668V51.474C213.668 52.514 213.668 53.4688 213.778 54.3298C213.889 55.1907 213.991 56.1796 214.187 57.2622L214.783 60.5357L208.416 60.5442Z" fill="white"/>
<path d="M221.438 55.0464L228.562 46.7263C229.436 47.9464 230.577 48.9496 231.899 49.6588C233.307 50.4307 234.889 50.827 236.495 50.8096C237.674 50.8754 238.854 50.6803 239.949 50.2384C241.045 49.7964 242.03 49.1183 242.835 48.2522C244.342 46.5473 245.099 44.0922 245.099 40.8273V9.28613H256.964V42.3447C257.075 45.9887 256.135 49.5876 254.257 52.7106C252.497 55.521 249.976 57.7734 246.989 59.2064C243.831 60.7186 240.369 61.4828 236.869 61.4399C233.913 61.4849 230.981 60.9039 228.264 59.7349C225.717 58.6124 223.402 57.0222 221.438 55.0464ZM232.971 18.2285V9.28613H252.998V18.2285H232.971Z" fill="white"/>
<path d="M267.756 45.7624V21.5439H278.88V44.049C278.88 46.4757 279.461 48.2715 280.625 49.4366C281.241 50.0217 281.971 50.4747 282.768 50.7679C283.566 51.061 284.415 51.1881 285.263 51.1415C286.792 51.1297 288.299 50.7743 289.672 50.1015C291.187 49.3648 292.519 48.2989 293.57 46.9815V54.3382C292.112 56.3528 290.301 58.0858 288.225 59.453C286.12 60.7886 283.669 61.4735 281.178 61.4222C278.904 61.431 276.668 60.8432 274.692 59.7173C272.565 58.4735 270.828 56.6572 269.679 54.4746C268.309 51.7817 267.647 48.7831 267.756 45.7624ZM293.868 60.5442L292.455 53.1107V21.5695H303.579V51.2608C303.579 52.3008 303.579 53.23 303.69 54.0399C303.8 54.8497 303.903 55.813 304.098 56.9041L304.694 60.5442H293.868Z" fill="white"/>
<path d="M313.588 21.5454H324.423L325.827 28.9704V60.5115H314.703V30.8287C314.703 29.7887 314.703 28.8595 314.592 28.0412C314.482 27.2228 314.38 26.2766 314.184 25.1854L313.588 21.5454ZM324.721 35.0655V27.7087C326.194 25.6709 328.043 23.9347 330.168 22.5939C332.318 21.2675 334.801 20.5843 337.326 20.6247C339.722 20.6226 342.073 21.2706 344.131 22.4999C346.188 23.7292 347.875 25.4939 349.011 27.6064C350.413 30.2955 351.091 33.3042 350.978 36.3357V60.5456H339.853V38.0321C339.906 36.6328 339.614 35.2421 339.002 33.9828C338.489 32.9782 337.673 32.161 336.67 31.6471C335.609 31.1371 334.443 30.8831 333.266 30.9055C331.63 30.9359 330.021 31.324 328.551 32.0425C327.081 32.7611 325.785 33.7928 324.755 35.0655H324.721Z" fill="white"/>
<path d="M360.91 10.3267C360.902 9.49515 361.057 8.67016 361.369 7.89916C361.68 7.12817 362.14 6.4264 362.723 5.83422C363.943 4.6161 365.596 3.93213 367.319 3.93213C369.042 3.93213 370.694 4.6161 371.915 5.83422C372.492 6.4289 372.946 7.13188 373.252 7.90281C373.557 8.67375 373.707 9.49746 373.694 10.3267C373.703 11.1576 373.549 11.9823 373.239 12.7533C372.929 13.5242 372.471 14.2263 371.889 14.8192C370.667 16.0234 369.021 16.6982 367.306 16.6982C365.591 16.6982 363.945 16.0234 362.723 14.8192C362.14 14.2267 361.68 13.5249 361.369 12.754C361.058 11.983 360.902 11.1582 360.91 10.3267ZM361.761 60.5453V21.5451H372.894V60.5453H361.761Z" fill="white"/>
<path d="M381.235 41.0844C381.128 37.2964 381.971 33.5421 383.686 30.1643C385.234 27.2069 387.597 24.757 390.495 23.1059C393.547 21.4717 396.954 20.6167 400.415 20.6167C403.875 20.6167 407.282 21.4717 410.334 23.1059C413.198 24.7736 415.529 27.2213 417.058 30.1643C418.767 33.5319 419.61 37.2738 419.509 41.0503C419.604 44.8016 418.761 48.5171 417.058 51.8595C415.522 54.806 413.182 57.254 410.309 58.9179C407.257 60.5521 403.85 61.4071 400.389 61.4071C396.928 61.4071 393.521 60.5521 390.469 58.9179C387.572 57.2668 385.208 54.8169 383.66 51.8595C381.972 48.525 381.138 44.822 381.235 41.0844ZM392.512 41.0844C392.446 43.2784 392.772 45.4667 393.474 47.546C393.978 49.0407 394.936 50.3402 396.214 51.2628C397.463 52.0372 398.903 52.4475 400.372 52.4475C401.841 52.4475 403.281 52.0372 404.53 51.2628C405.808 50.3402 406.766 49.0407 407.27 47.546C407.977 45.4677 408.302 43.2787 408.232 41.0844C408.303 38.89 407.977 36.7009 407.27 34.6227C406.761 33.1189 405.805 31.8071 404.53 30.8633C403.289 30.0675 401.846 29.6445 400.372 29.6445C398.898 29.6445 397.456 30.0675 396.214 30.8633C394.939 31.8071 393.983 33.1189 393.474 34.6227C392.771 36.7019 392.445 38.8903 392.512 41.0844Z" fill="white"/>
<path d="M426.777 21.545H437.621L439.016 29.311V60.5111H427.892V30.8284C427.892 29.7884 427.85 28.8592 427.782 28.0408C427.714 27.2224 427.569 26.2762 427.373 25.1851L426.777 21.545ZM437.901 36.1818V29.1916C439.278 26.6848 441.223 24.5359 443.578 22.9175C445.769 21.4326 448.355 20.6425 451 20.65V31.6467C448.528 31.586 446.061 31.9109 443.689 32.61C441.535 33.3901 439.565 34.606 437.901 36.1818Z" fill="white"/>
<path d="M16.1838 49.0527H5.23854C2.89766 49.0527 1 50.9534 1 53.298V64.2607C1 66.6053 2.89766 68.506 5.23854 68.506H16.1838C18.5247 68.506 20.4224 66.6053 20.4224 64.2607V53.298C20.4224 50.9534 18.5247 49.0527 16.1838 49.0527Z" fill="white"/>
<path d="M39.7339 25.0146H28.7886C26.4477 25.0146 24.55 26.9153 24.55 29.2599V40.2226C24.55 42.5672 26.4477 44.4679 28.7886 44.4679H39.7339C42.0748 44.4679 43.9724 42.5672 43.9724 40.2226V29.2599C43.9724 26.9153 42.0748 25.0146 39.7339 25.0146Z" fill="white"/>
<path d="M63.6843 0.974609H52.739C50.3981 0.974609 48.5005 2.87528 48.5005 5.21988V16.1826C48.5005 18.5272 50.3981 20.4278 52.739 20.4278H63.6843C66.0252 20.4278 67.9229 18.5272 67.9229 16.1826V5.21988C67.9229 2.87528 66.0252 0.974609 63.6843 0.974609Z" fill="white"/>
<path d="M39.7339 49.0527H28.7886C26.4477 49.0527 24.55 50.9534 24.55 53.298V64.2607C24.55 66.6053 26.4477 68.506 28.7886 68.506H39.7339C42.0748 68.506 43.9724 66.6053 43.9724 64.2607V53.298C43.9724 50.9534 42.0748 49.0527 39.7339 49.0527Z" stroke="white" stroke-miterlimit="10"/>
<path d="M63.6843 25.0146H52.739C50.3981 25.0146 48.5005 26.9153 48.5005 29.2599V40.2226C48.5005 42.5672 50.3981 44.4679 52.739 44.4679H63.6843C66.0252 44.4679 67.9229 42.5672 67.9229 40.2226V29.2599C67.9229 26.9153 66.0252 25.0146 63.6843 25.0146Z" stroke="white" stroke-miterlimit="10"/>
<path d="M16.1838 25.0146H5.23854C2.89766 25.0146 1 26.9153 1 29.2599V40.2226C1 42.5672 2.89766 44.4679 5.23854 44.4679H16.1838C18.5247 44.4679 20.4224 42.5672 20.4224 40.2226V29.2599C20.4224 26.9153 18.5247 25.0146 16.1838 25.0146Z" stroke="white" stroke-miterlimit="10"/>
<path d="M39.7339 0.974609H28.7886C26.4477 0.974609 24.55 2.87528 24.55 5.21988V16.1826C24.55 18.5272 26.4477 20.4278 28.7886 20.4278H39.7339C42.0748 20.4278 43.9724 18.5272 43.9724 16.1826V5.21988C43.9724 2.87528 42.0748 0.974609 39.7339 0.974609Z" stroke="white" stroke-miterlimit="10"/>
</svg>
