<svg width="61" height="61" viewBox="0 0 61 61" fill="none" xmlns="http://www.w3.org/2000/svg">
<path d="M55.9167 52.5278C55.9167 56.2556 52.8667 59.3056 49.1389 59.3056H11.8612C8.13337 59.3056 5.08337 56.2556 5.08337 52.5278V23.7222C5.08337 19.9945 8.13337 16.9445 11.8612 16.9445H49.1389C52.8667 16.9445 55.9167 19.9945 55.9167 23.7222V52.5278Z" fill="#FDD888"/>
<path d="M61 18.6389C61 22.3666 57.95 25.4166 54.2222 25.4166H6.77778C3.05 25.4166 0 22.3666 0 18.6389C0 14.9111 3.05 11.8611 6.77778 11.8611H54.2222C57.95 11.8611 61 14.9111 61 18.6389Z" fill="#FDD888"/>
<path d="M5.08337 25.4166H55.9167V28.8055H5.08337V25.4166Z" fill="#FCAB40"/>
<path d="M32.1944 5.08337H28.8055C25.9978 5.08337 23.7222 7.35901 23.7222 10.1667V59.3056H37.2777V10.1667C37.2777 7.36071 35.0021 5.08337 32.1944 5.08337Z" fill="#DA2F47"/>
<path d="M27.1111 11.8611C28.975 11.8611 29.2512 10.9868 27.7228 9.91758L16.3328 1.94352C14.8044 0.87433 12.7999 1.32336 11.8747 2.94155L8.45869 8.91955C7.53353 10.5377 8.3028 11.8611 10.1667 11.8611H27.1111ZM33.8889 11.8611C32.025 11.8611 31.7488 10.9868 33.2772 9.91758L44.669 1.94352C46.1957 0.87433 48.2019 1.32336 49.1271 2.94155L52.5431 8.91786C53.4665 10.5377 52.6972 11.8611 50.8334 11.8611H33.8889Z" fill="#DA2F47"/>
</svg>
