<svg width="2150" height="3107" viewBox="0 0 2150 3107" fill="none" xmlns="http://www.w3.org/2000/svg">
<g opacity="0.4" filter="url(#filter0_f_728_2864)">
<ellipse cx="684.518" cy="2476.1" rx="162.37" ry="201.175" transform="rotate(50.6626 684.518 2476.1)" fill="url(#paint0_linear_728_2864)"/>
</g>
<g opacity="0.83" filter="url(#filter1_f_728_2864)">
<path d="M538.235 2553.69C499.559 2526.32 546.982 2475.66 499.559 2493.4C452.137 2511.13 404.533 2501.01 393.234 2470.8C381.934 2440.59 418.5 2408.82 465.922 2391.09C513.345 2373.35 655.487 2499.76 538.235 2553.69Z" fill="#6805E7"/>
</g>
<g opacity="0.4" filter="url(#filter2_f_728_2864)">
<ellipse cx="1470.39" cy="2115.07" rx="198.718" ry="246.21" transform="rotate(50.6626 1470.39 2115.07)" fill="url(#paint1_linear_728_2864)"/>
</g>
<g opacity="0.83" filter="url(#filter3_f_728_2864)">
<path d="M1319.55 2190.45C1272.22 2156.95 1330.26 2094.95 1272.22 2116.66C1214.18 2138.36 1155.92 2125.98 1142.09 2089C1128.26 2052.02 1173.01 2013.15 1231.05 1991.45C1289.09 1969.74 1463.05 2124.45 1319.55 2190.45Z" fill="#6805E7"/>
</g>
<g opacity="0.4" filter="url(#filter4_f_728_2864)">
<ellipse cx="720.46" cy="757.948" rx="256" ry="317.183" transform="rotate(-25.7772 720.46 757.948)" fill="url(#paint2_linear_728_2864)"/>
</g>
<g opacity="0.83" filter="url(#filter5_f_728_2864)">
<path d="M1442.55 1299.28C1395.22 1265.78 1453.26 1203.78 1395.22 1225.49C1337.18 1247.19 1278.92 1234.81 1265.09 1197.83C1251.26 1160.85 1296.01 1121.98 1354.05 1100.28C1412.09 1078.57 1586.05 1233.28 1442.55 1299.28Z" fill="#6805E7"/>
</g>
<g filter="url(#filter6_f_728_2864)">
<path d="M1571.55 1333.64C1524.22 1300.14 1582.26 1238.14 1524.22 1259.85C1466.18 1281.55 1407.92 1269.17 1394.09 1232.19C1380.26 1195.21 1425.01 1156.34 1483.05 1134.64C1541.09 1112.93 1715.05 1267.64 1571.55 1333.64Z" fill="#046AD0"/>
</g>
<g filter="url(#filter7_f_728_2864)">
<path d="M1065.04 1415.57C1102.12 1429.12 1229.03 1413.36 1228.42 1331.86C1190.9 1261.13 1173.8 1318.59 1136.72 1305.03C1099.64 1291.48 1074.69 1165.78 1053.41 1223.98C1032.14 1282.18 1027.96 1402.01 1065.04 1415.57Z" fill="#5B05E7" fill-opacity="0.95"/>
</g>
<g opacity="0.69" filter="url(#filter8_f_728_2864)">
<ellipse cx="1264.36" cy="1236.23" rx="208.689" ry="132.962" transform="rotate(-20.5044 1264.36 1236.23)" fill="#0575E7"/>
</g>
<defs>
<filter id="filter0_f_728_2864" x="46.9424" y="1846.13" width="1275.15" height="1259.95" filterUnits="userSpaceOnUse" color-interpolation-filters="sRGB">
<feFlood flood-opacity="0" result="BackgroundImageFix"/>
<feBlend mode="normal" in="SourceGraphic" in2="BackgroundImageFix" result="shape"/>
<feGaussianBlur stdDeviation="225.5" result="effect1_foregroundBlur_728_2864"/>
</filter>
<filter id="filter1_f_728_2864" x="31.1675" y="2029.4" width="912.323" height="884.291" filterUnits="userSpaceOnUse" color-interpolation-filters="sRGB">
<feFlood flood-opacity="0" result="BackgroundImageFix"/>
<feBlend mode="normal" in="SourceGraphic" in2="BackgroundImageFix" result="shape"/>
<feGaussianBlur stdDeviation="180" result="effect1_foregroundBlur_728_2864"/>
</filter>
<filter id="filter2_f_728_2864" x="791.047" y="1445.03" width="1358.69" height="1340.08" filterUnits="userSpaceOnUse" color-interpolation-filters="sRGB">
<feFlood flood-opacity="0" result="BackgroundImageFix"/>
<feBlend mode="normal" in="SourceGraphic" in2="BackgroundImageFix" result="shape"/>
<feGaussianBlur stdDeviation="225.5" result="effect1_foregroundBlur_728_2864"/>
</filter>
<filter id="filter3_f_728_2864" x="779.563" y="1629.38" width="955.376" height="921.069" filterUnits="userSpaceOnUse" color-interpolation-filters="sRGB">
<feFlood flood-opacity="0" result="BackgroundImageFix"/>
<feBlend mode="normal" in="SourceGraphic" in2="BackgroundImageFix" result="shape"/>
<feGaussianBlur stdDeviation="180" result="effect1_foregroundBlur_728_2864"/>
</filter>
<filter id="filter4_f_728_2864" x="0.777832" y="0.315643" width="1439.36" height="1515.26" filterUnits="userSpaceOnUse" color-interpolation-filters="sRGB">
<feFlood flood-opacity="0" result="BackgroundImageFix"/>
<feBlend mode="normal" in="SourceGraphic" in2="BackgroundImageFix" result="shape"/>
<feGaussianBlur stdDeviation="225.5" result="effect1_foregroundBlur_728_2864"/>
</filter>
<filter id="filter5_f_728_2864" x="902.563" y="738.207" width="955.376" height="921.069" filterUnits="userSpaceOnUse" color-interpolation-filters="sRGB">
<feFlood flood-opacity="0" result="BackgroundImageFix"/>
<feBlend mode="normal" in="SourceGraphic" in2="BackgroundImageFix" result="shape"/>
<feGaussianBlur stdDeviation="180" result="effect1_foregroundBlur_728_2864"/>
</filter>
<filter id="filter6_f_728_2864" x="1031.56" y="772.566" width="955.376" height="921.069" filterUnits="userSpaceOnUse" color-interpolation-filters="sRGB">
<feFlood flood-opacity="0" result="BackgroundImageFix"/>
<feBlend mode="normal" in="SourceGraphic" in2="BackgroundImageFix" result="shape"/>
<feGaussianBlur stdDeviation="180" result="effect1_foregroundBlur_728_2864"/>
</filter>
<filter id="filter7_f_728_2864" x="637.252" y="808.687" width="991.174" height="1011.21" filterUnits="userSpaceOnUse" color-interpolation-filters="sRGB">
<feFlood flood-opacity="0" result="BackgroundImageFix"/>
<feBlend mode="normal" in="SourceGraphic" in2="BackgroundImageFix" result="shape"/>
<feGaussianBlur stdDeviation="200" result="effect1_foregroundBlur_728_2864"/>
</filter>
<filter id="filter8_f_728_2864" x="813.373" y="841.803" width="901.971" height="788.86" filterUnits="userSpaceOnUse" color-interpolation-filters="sRGB">
<feFlood flood-opacity="0" result="BackgroundImageFix"/>
<feBlend mode="normal" in="SourceGraphic" in2="BackgroundImageFix" result="shape"/>
<feGaussianBlur stdDeviation="125" result="effect1_foregroundBlur_728_2864"/>
</filter>
<linearGradient id="paint0_linear_728_2864" x1="684.518" y1="2274.93" x2="684.518" y2="2677.28" gradientUnits="userSpaceOnUse">
<stop stop-color="#046AD0"/>
<stop offset="1" stop-color="#0575E7"/>
</linearGradient>
<linearGradient id="paint1_linear_728_2864" x1="1470.39" y1="1868.86" x2="1470.39" y2="2361.28" gradientUnits="userSpaceOnUse">
<stop stop-color="#046AD0"/>
<stop offset="1" stop-color="#0575E7"/>
</linearGradient>
<linearGradient id="paint2_linear_728_2864" x1="720.46" y1="440.765" x2="720.46" y2="1075.13" gradientUnits="userSpaceOnUse">
<stop stop-color="#046AD0"/>
<stop offset="1" stop-color="#0575E7"/>
</linearGradient>
</defs>
</svg>
